<svg version="1.1" xmlns="http://www.w3.org/2000/svg" viewBox="0 0 528.533332824707 359.25" width="528.533332824707" height="359.25">
  <!-- svg-source:excalidraw -->
  
  <defs>
    <style class="style-fonts">
      @font-face {
        font-family: "Virgil";
        src: url("https://excalidraw.com/Virgil.woff2");
      }
      @font-face {
        font-family: "Cascadia";
        src: url("https://excalidraw.com/Cascadia.woff2");
      }
    </style>
    
  </defs>
  <g stroke-linecap="round" transform="translate(138.03333282470703 74.5) rotate(0 42.5 22.5)"><path d="M11.25 0 M11.25 0 C32.17 -2.21, 55.66 1.94, 73.75 0 M11.25 0 C25.41 -0.65, 40.54 2.47, 73.75 0 M73.75 0 C81.09 -2.7, 85.91 0.24, 85 11.25 M73.75 0 C79.28 0.17, 81.68 3.33, 85 11.25 M85 11.25 C83.04 18.2, 84.02 26.57, 85 33.75 M85 11.25 C83.08 18.36, 85.86 21.09, 85 33.75 M85 33.75 C87.1 37.4, 82.06 48.98, 73.75 45 M85 33.75 C80.97 38.7, 79.76 43.85, 73.75 45 M73.75 45 C56.26 47.34, 45.89 46.62, 11.25 45 M73.75 45 C52.2 47.03, 33.65 44.86, 11.25 45 M11.25 45 C0.22 44.87, 1.58 38.22, 0 33.75 M11.25 45 C5.83 44.5, -4.47 43.78, 0 33.75 M0 33.75 C2.25 27.18, 2.15 20.8, 0 11.25 M0 33.75 C-0.87 28.31, -0.77 25.24, 0 11.25 M0 11.25 C1.17 5.81, 4.35 -3.6, 11.25 0 M0 11.25 C2.02 6.95, 6.08 4.44, 11.25 0" stroke="#1e1e1e" stroke-width="2" fill="none"></path></g><g transform="translate(152.53333282470703 79.5) rotate(0 28 17.5)"><text x="28" y="0" font-family="Virgil, Segoe UI Emoji" font-size="28px" fill="#1e1e1e" text-anchor="middle" style="white-space: pre;" direction="ltr" dominant-baseline="text-before-edge">中国</text></g><g stroke-linecap="round" transform="translate(225.53333282470703 73) rotate(0 42.5 22.5)"><path d="M11.25 0 M11.25 0 C25.62 -2.08, 45.19 -1.89, 73.75 0 M11.25 0 C35.61 -2.45, 60.26 0.75, 73.75 0 M73.75 0 C83.27 3.86, 85.97 7.32, 85 11.25 M73.75 0 C82.88 2.43, 87.74 7.17, 85 11.25 M85 11.25 C81.5 20.95, 88.1 28.41, 85 33.75 M85 11.25 C87.22 16.05, 86.04 24.14, 85 33.75 M85 33.75 C84.83 44.63, 81.9 41.68, 73.75 45 M85 33.75 C80.69 45.5, 83.65 42.7, 73.75 45 M73.75 45 C50.43 40.33, 30.39 44.74, 11.25 45 M73.75 45 C51.12 44.33, 32.68 42, 11.25 45 M11.25 45 C6.41 46.92, 0.98 37.83, 0 33.75 M11.25 45 C0.14 42.52, -0.99 37.1, 0 33.75 M0 33.75 C0.13 27.84, -3.57 14.53, 0 11.25 M0 33.75 C-1.32 25.03, 0.12 17.31, 0 11.25 M0 11.25 C0.35 3.2, 2.72 2.55, 11.25 0 M0 11.25 C2.75 -0.63, 1.29 3.62, 11.25 0" stroke="#1e1e1e" stroke-width="2" fill="none"></path></g><g transform="translate(240.03333282470703 78) rotate(0 28 17.5)"><text x="28" y="0" font-family="Virgil, Segoe UI Emoji" font-size="28px" fill="#1e1e1e" text-anchor="middle" style="white-space: pre;" direction="ltr" dominant-baseline="text-before-edge">日本</text></g><g stroke-linecap="round" transform="translate(313.53333282470703 73) rotate(0 42.5 22.5)"><path d="M11.25 0 M11.25 0 C30.47 -2.17, 52.79 -2.38, 73.75 0 M11.25 0 C34.37 0.11, 53.8 0.95, 73.75 0 M73.75 0 C83.13 -2.3, 81.05 4.21, 85 11.25 M73.75 0 C77.93 2.82, 83.89 5.36, 85 11.25 M85 11.25 C82.4 19.12, 85.89 24.76, 85 33.75 M85 11.25 C84.28 19.47, 84.99 23.87, 85 33.75 M85 33.75 C84.61 40.33, 82.65 46.24, 73.75 45 M85 33.75 C85.51 37.61, 82.2 48.45, 73.75 45 M73.75 45 C61.02 47.48, 43.52 48.69, 11.25 45 M73.75 45 C62.83 43.4, 47.08 45.78, 11.25 45 M11.25 45 C6.8 48.2, -1.3 40.63, 0 33.75 M11.25 45 C3.76 46.9, -4.42 40.77, 0 33.75 M0 33.75 C2.4 28.52, -4.18 25.59, 0 11.25 M0 33.75 C0.42 25.27, 1.73 14.21, 0 11.25 M0 11.25 C-0.36 7.31, 2.5 -1.49, 11.25 0 M0 11.25 C3.4 5.71, 5.49 0.12, 11.25 0" stroke="#1e1e1e" stroke-width="2" fill="none"></path></g><g transform="translate(328.03333282470703 78) rotate(0 28 17.5)"><text x="28" y="0" font-family="Virgil, Segoe UI Emoji" font-size="28px" fill="#1e1e1e" text-anchor="middle" style="white-space: pre;" direction="ltr" dominant-baseline="text-before-edge">韩国</text></g><g stroke-linecap="round" transform="translate(400.53333282470703 73) rotate(0 59 22.5)"><path d="M11.25 0 M11.25 0 C29.39 -3.19, 52.97 0, 106.75 0 M11.25 0 C45.47 -0.36, 75.53 -1.81, 106.75 0 M106.75 0 C112.69 -3.29, 116.67 3.77, 118 11.25 M106.75 0 C115.61 -3.18, 121.77 0.99, 118 11.25 M118 11.25 C116.76 17.7, 119.82 20.64, 118 33.75 M118 11.25 C116.58 19.62, 116.16 28.98, 118 33.75 M118 33.75 C115.75 42.77, 114.69 41.45, 106.75 45 M118 33.75 C121.99 40.58, 110.26 42.4, 106.75 45 M106.75 45 C71.68 43.73, 39.61 49.09, 11.25 45 M106.75 45 C85.39 44.29, 64.78 44.72, 11.25 45 M11.25 45 C1.69 43.36, 2.98 41.67, 0 33.75 M11.25 45 C3.63 48.06, 4.32 42.98, 0 33.75 M0 33.75 C3.41 24.73, 0.47 15.4, 0 11.25 M0 33.75 C-1.39 29.43, -1.71 23.08, 0 11.25 M0 11.25 C3.61 4.21, 5.81 0.48, 11.25 0 M0 11.25 C-4.18 3.6, -0.84 3.61, 11.25 0" stroke="#1e1e1e" stroke-width="2" fill="none"></path></g><g transform="translate(417.53333282470703 78) rotate(0 42 17.5)"><text x="42" y="0" font-family="Virgil, Segoe UI Emoji" font-size="28px" fill="#1e1e1e" text-anchor="middle" style="white-space: pre;" direction="ltr" dominant-baseline="text-before-edge">意大利</text></g><g transform="translate(175.03333282470703 14.5) rotate(0 9.633333206176758 17.5)"><text x="0" y="0" font-family="Virgil, Segoe UI Emoji" font-size="28px" fill="#1e1e1e" text-anchor="start" style="white-space: pre;" direction="ltr" dominant-baseline="text-before-edge">0</text></g><g transform="translate(263.3999996185303 13) rotate(0 3.799999952316284 17.5)"><text x="0" y="0" font-family="Virgil, Segoe UI Emoji" font-size="28px" fill="#1e1e1e" text-anchor="start" style="white-space: pre;" direction="ltr" dominant-baseline="text-before-edge">1</text></g><g transform="translate(350.23333287239075 14) rotate(0 9.966666221618652 17.5)"><text x="0" y="0" font-family="Virgil, Segoe UI Emoji" font-size="28px" fill="#1e1e1e" text-anchor="start" style="white-space: pre;" direction="ltr" dominant-baseline="text-before-edge">2</text></g><g transform="translate(452.0666666030884 10) rotate(0 9.533333778381348 17.5)"><text x="0" y="0" font-family="Virgil, Segoe UI Emoji" font-size="28px" fill="#1e1e1e" text-anchor="start" style="white-space: pre;" direction="ltr" dominant-baseline="text-before-edge">3</text></g><g transform="translate(18.03333282470703 13.5) rotate(0 33.08333206176758 17.5)"><text x="0" y="0" font-family="Virgil, Segoe UI Emoji" font-size="28px" fill="#1e1e1e" text-anchor="start" style="white-space: pre;" direction="ltr" dominant-baseline="text-before-edge">index</text></g><g stroke-linecap="round"><g transform="translate(184.03333282470703 44.5) rotate(0 0 14.5)"><path d="M0 0 C0 4.83, 0 24.17, 0 29 M0 0 C0 4.83, 0 24.17, 0 29" stroke="#1e1e1e" stroke-width="2" fill="none"></path></g><g transform="translate(184.03333282470703 44.5) rotate(0 0 14.5)"><path d="M-4.96 15.37 C-3.27 20, -1.59 24.64, 0 29 M-4.96 15.37 C-3.49 19.42, -2.01 23.47, 0 29" stroke="#1e1e1e" stroke-width="2" fill="none"></path></g><g transform="translate(184.03333282470703 44.5) rotate(0 0 14.5)"><path d="M4.96 15.37 C3.27 20, 1.59 24.64, 0 29 M4.96 15.37 C3.49 19.42, 2.01 23.47, 0 29" stroke="#1e1e1e" stroke-width="2" fill="none"></path></g></g><mask></mask><g stroke-linecap="round"><g transform="translate(268.03333282470703 42) rotate(0 0 16.5)"><path d="M0 0 C0 5.5, 0 27.5, 0 33 M0 0 C0 5.5, 0 27.5, 0 33" stroke="#1e1e1e" stroke-width="2" fill="none"></path></g><g transform="translate(268.03333282470703 42) rotate(0 0 16.5)"><path d="M-5.64 17.5 C-3.45 23.53, -1.25 29.56, 0 33 M-5.64 17.5 C-3.88 22.34, -2.12 27.18, 0 33" stroke="#1e1e1e" stroke-width="2" fill="none"></path></g><g transform="translate(268.03333282470703 42) rotate(0 0 16.5)"><path d="M5.64 17.5 C3.45 23.53, 1.25 29.56, 0 33 M5.64 17.5 C3.88 22.34, 2.12 27.18, 0 33" stroke="#1e1e1e" stroke-width="2" fill="none"></path></g></g><mask></mask><g stroke-linecap="round"><g transform="translate(360.03333282470703 41) rotate(0 0 16.5)"><path d="M0 0 C0 5.5, 0 27.5, 0 33 M0 0 C0 5.5, 0 27.5, 0 33" stroke="#1e1e1e" stroke-width="2" fill="none"></path></g><g transform="translate(360.03333282470703 41) rotate(0 0 16.5)"><path d="M-5.64 17.5 C-4.44 20.79, -3.25 24.08, 0 33 M-5.64 17.5 C-4.07 21.83, -2.49 26.16, 0 33" stroke="#1e1e1e" stroke-width="2" fill="none"></path></g><g transform="translate(360.03333282470703 41) rotate(0 0 16.5)"><path d="M5.64 17.5 C4.44 20.79, 3.25 24.08, 0 33 M5.64 17.5 C4.07 21.83, 2.49 26.16, 0 33" stroke="#1e1e1e" stroke-width="2" fill="none"></path></g></g><mask></mask><g stroke-linecap="round"><g transform="translate(462.03333282470703 37) rotate(0 0 16.5)"><path d="M0 0 C0 5.5, 0 27.5, 0 33 M0 0 C0 5.5, 0 27.5, 0 33" stroke="#1e1e1e" stroke-width="2" fill="none"></path></g><g transform="translate(462.03333282470703 37) rotate(0 0 16.5)"><path d="M-5.64 17.5 C-3.92 22.23, -2.2 26.96, 0 33 M-5.64 17.5 C-3.99 22.03, -2.34 26.57, 0 33" stroke="#1e1e1e" stroke-width="2" fill="none"></path></g><g transform="translate(462.03333282470703 37) rotate(0 0 16.5)"><path d="M5.64 17.5 C3.92 22.23, 2.2 26.96, 0 33 M5.64 17.5 C3.99 22.03, 2.34 26.57, 0 33" stroke="#1e1e1e" stroke-width="2" fill="none"></path></g></g><mask></mask><g transform="translate(284.03333282470703 154.5) rotate(0 28 17.5)"><text x="0" y="0" font-family="Virgil, Segoe UI Emoji" font-size="28px" fill="#1e1e1e" text-anchor="start" style="white-space: pre;" direction="ltr" dominant-baseline="text-before-edge">列表</text></g><g stroke-linecap="round" transform="translate(133.78333282470703 304.25) rotate(0 42.5 22.5)"><path d="M11.25 0 M11.25 0 C30.01 -0.18, 45.29 -1.66, 73.75 0 M11.25 0 C24.49 -2.16, 41.44 0.5, 73.75 0 M73.75 0 C78.76 -0.56, 83.35 5.29, 85 11.25 M73.75 0 C82.46 -2.16, 83.68 1.4, 85 11.25 M85 11.25 C85.23 20.18, 83.27 20.53, 85 33.75 M85 11.25 C84.18 16.38, 83.54 22.44, 85 33.75 M85 33.75 C81.44 40.53, 83.47 45.57, 73.75 45 M85 33.75 C87.96 39.3, 83.71 45.41, 73.75 45 M73.75 45 C56.15 48.12, 39.28 42.43, 11.25 45 M73.75 45 C56.74 45.07, 38.53 44.13, 11.25 45 M11.25 45 C4.37 43.81, -2.54 37.32, 0 33.75 M11.25 45 C3.8 45.89, 1.64 44.56, 0 33.75 M0 33.75 C-1.85 25.82, 0.04 22.21, 0 11.25 M0 33.75 C-1.72 27.01, -2.27 23.38, 0 11.25 M0 11.25 C-1.94 2.07, 1.97 0.68, 11.25 0 M0 11.25 C-3.72 7.78, 3.94 2.13, 11.25 0" stroke="#1e1e1e" stroke-width="2" fill="none"></path></g><g transform="translate(153.31666564941406 309.25) rotate(0 22.96666717529297 17.5)"><text x="22.96666717529297" y="0" font-family="Virgil, Segoe UI Emoji" font-size="28px" fill="#1e1e1e" text-anchor="middle" style="white-space: pre;" direction="ltr" dominant-baseline="text-before-edge">103</text></g><g stroke-linecap="round" transform="translate(221.28333282470703 302.75) rotate(0 42.5 22.5)"><path d="M11.25 0 M11.25 0 C25.76 2.77, 46.27 -1.7, 73.75 0 M11.25 0 C22.51 -0.7, 35.44 0.35, 73.75 0 M73.75 0 C82.3 -1.88, 83.86 1.7, 85 11.25 M73.75 0 C80.36 3.56, 85.98 3.61, 85 11.25 M85 11.25 C81.89 20.75, 87.42 25.76, 85 33.75 M85 11.25 C82.86 17.64, 85.75 25.02, 85 33.75 M85 33.75 C87.57 39.56, 83.39 45.36, 73.75 45 M85 33.75 C83.62 37.65, 81.97 44.16, 73.75 45 M73.75 45 C50.29 40.42, 25.42 47.18, 11.25 45 M73.75 45 C53.45 44.19, 31.26 42.82, 11.25 45 M11.25 45 C3.79 45.77, 1.42 44.13, 0 33.75 M11.25 45 C2.46 49.18, 3.33 39.59, 0 33.75 M0 33.75 C-1.65 30.57, -3.27 19.43, 0 11.25 M0 33.75 C-0.52 27.16, -0.44 22.59, 0 11.25 M0 11.25 C-3.23 7.25, 3.91 1.86, 11.25 0 M0 11.25 C-2.2 2.68, -0.35 -2.57, 11.25 0" stroke="#1e1e1e" stroke-width="2" fill="none"></path></g><g transform="translate(250.01666641235352 307.75) rotate(0 13.766666412353516 17.5)"><text x="13.766666412353516" y="0" font-family="Virgil, Segoe UI Emoji" font-size="28px" fill="#1e1e1e" text-anchor="middle" style="white-space: pre;" direction="ltr" dominant-baseline="text-before-edge">21</text></g><g stroke-linecap="round" transform="translate(309.28333282470703 302.75) rotate(0 42.5 22.5)"><path d="M11.25 0 M11.25 0 C29.15 3.28, 56.37 -1.72, 73.75 0 M11.25 0 C29.65 -1.42, 46.43 -1.5, 73.75 0 M73.75 0 C80.48 3.09, 85.85 3.63, 85 11.25 M73.75 0 C84.26 -2.39, 81.14 0.44, 85 11.25 M85 11.25 C85.29 15.51, 87.16 22.63, 85 33.75 M85 11.25 C86.54 16.75, 86.32 24.12, 85 33.75 M85 33.75 C83.8 38.12, 81.87 44.27, 73.75 45 M85 33.75 C88.37 40.41, 78.07 44.84, 73.75 45 M73.75 45 C62 49.64, 47.18 46.57, 11.25 45 M73.75 45 C56.88 44.16, 40.68 45.21, 11.25 45 M11.25 45 C2.63 48.63, 2.89 39.81, 0 33.75 M11.25 45 C1.67 45.52, 0.8 39.41, 0 33.75 M0 33.75 C-1.41 21.6, 3.03 15.44, 0 11.25 M0 33.75 C-1.42 29.7, 0.28 23.07, 0 11.25 M0 11.25 C-1.91 2.82, 0.19 -2.24, 11.25 0 M0 11.25 C2.68 2.41, 5.03 0.52, 11.25 0" stroke="#1e1e1e" stroke-width="2" fill="none"></path></g><g transform="translate(340.44999980926514 307.75) rotate(0 11.333333015441895 17.5)"><text x="11.333333015441895" y="0" font-family="Virgil, Segoe UI Emoji" font-size="28px" fill="#1e1e1e" text-anchor="middle" style="white-space: pre;" direction="ltr" dominant-baseline="text-before-edge">17</text></g><g stroke-linecap="round" transform="translate(397.28333282470703 302.75) rotate(0 42 22.5)"><path d="M11.25 0 M11.25 0 C33 -0.88, 57.4 1.82, 72.75 0 M11.25 0 C26.42 2.18, 42.79 0.57, 72.75 0 M72.75 0 C82.86 -2.08, 80.65 0.87, 84 11.25 M72.75 0 C81.72 3.06, 81.78 3.74, 84 11.25 M84 11.25 C83.49 18.42, 84.78 23.71, 84 33.75 M84 11.25 C83.64 15.48, 84.55 22.48, 84 33.75 M84 33.75 C86.93 40.52, 77.48 44.86, 72.75 45 M84 33.75 C79.73 39.32, 83.75 46.37, 72.75 45 M72.75 45 C47.44 42.65, 20.57 45.24, 11.25 45 M72.75 45 C52.55 47.7, 34.92 45.16, 11.25 45 M11.25 45 C1.94 45.45, 0.69 39.65, 0 33.75 M11.25 45 C6.69 41.29, -3.29 39.21, 0 33.75 M0 33.75 C-1.98 27.45, 0.38 21.47, 0 11.25 M0 33.75 C-0.98 24.57, -1.8 15.19, 0 11.25 M0 11.25 C2.33 2.58, 4.86 0.46, 11.25 0 M0 11.25 C-3.07 0.41, 3.48 2.86, 11.25 0" stroke="#1e1e1e" stroke-width="2" fill="none"></path></g><g transform="translate(427.94999980926514 307.75) rotate(0 11.333333015441895 17.5)"><text x="11.333333015441895" y="0" font-family="Virgil, Segoe UI Emoji" font-size="28px" fill="#1e1e1e" text-anchor="middle" style="white-space: pre;" direction="ltr" dominant-baseline="text-before-edge">17</text></g><g transform="translate(151.78333282470703 244.25) rotate(0 28 17.5)"><text x="0" y="0" font-family="Virgil, Segoe UI Emoji" font-size="28px" fill="#1e1e1e" text-anchor="start" style="white-space: pre;" direction="ltr" dominant-baseline="text-before-edge">中国</text></g><g transform="translate(238.14999961853027 241.75) rotate(0 28 17.5)"><text x="0" y="0" font-family="Virgil, Segoe UI Emoji" font-size="28px" fill="#1e1e1e" text-anchor="start" style="white-space: pre;" direction="ltr" dominant-baseline="text-before-edge">日本</text></g><g transform="translate(325.98333287239075 240.75) rotate(0 28 17.5)"><text x="0" y="0" font-family="Virgil, Segoe UI Emoji" font-size="28px" fill="#1e1e1e" text-anchor="start" style="white-space: pre;" direction="ltr" dominant-baseline="text-before-edge">韩国</text></g><g transform="translate(403.8166666030884 241.75) rotate(0 42 17.5)"><text x="0" y="0" font-family="Virgil, Segoe UI Emoji" font-size="28px" fill="#1e1e1e" text-anchor="start" style="white-space: pre;" direction="ltr" dominant-baseline="text-before-edge">意大利</text></g><g transform="translate(13.783332824707031 243.25) rotate(0 21.03333282470703 17.5)"><text x="0" y="0" font-family="Virgil, Segoe UI Emoji" font-size="28px" fill="#e03131" text-anchor="start" style="white-space: pre;" direction="ltr" dominant-baseline="text-before-edge">key</text></g><g stroke-linecap="round"><g transform="translate(179.78333282470703 274.25) rotate(0 0 14.5)"><path d="M0 0 C0 4.83, 0 24.17, 0 29 M0 0 C0 4.83, 0 24.17, 0 29" stroke="#1e1e1e" stroke-width="2" fill="none"></path></g><g transform="translate(179.78333282470703 274.25) rotate(0 0 14.5)"><path d="M-4.96 15.37 C-3.15 20.35, -1.34 25.33, 0 29 M-4.96 15.37 C-3.56 19.22, -2.16 23.06, 0 29" stroke="#1e1e1e" stroke-width="2" fill="none"></path></g><g transform="translate(179.78333282470703 274.25) rotate(0 0 14.5)"><path d="M4.96 15.37 C3.15 20.35, 1.34 25.33, 0 29 M4.96 15.37 C3.56 19.22, 2.16 23.06, 0 29" stroke="#1e1e1e" stroke-width="2" fill="none"></path></g></g><mask></mask><g stroke-linecap="round"><g transform="translate(263.78333282470703 271.75) rotate(0 0 16.5)"><path d="M0 0 C0 5.5, 0 27.5, 0 33 M0 0 C0 5.5, 0 27.5, 0 33" stroke="#1e1e1e" stroke-width="2" fill="none"></path></g><g transform="translate(263.78333282470703 271.75) rotate(0 0 16.5)"><path d="M-5.64 17.5 C-4.42 20.85, -3.2 24.2, 0 33 M-5.64 17.5 C-3.87 22.37, -2.1 27.24, 0 33" stroke="#1e1e1e" stroke-width="2" fill="none"></path></g><g transform="translate(263.78333282470703 271.75) rotate(0 0 16.5)"><path d="M5.64 17.5 C4.42 20.85, 3.2 24.2, 0 33 M5.64 17.5 C3.87 22.37, 2.1 27.24, 0 33" stroke="#1e1e1e" stroke-width="2" fill="none"></path></g></g><mask></mask><g stroke-linecap="round"><g transform="translate(355.78333282470703 270.75) rotate(0 0 16.5)"><path d="M0 0 C0 5.5, 0 27.5, 0 33 M0 0 C0 5.5, 0 27.5, 0 33" stroke="#1e1e1e" stroke-width="2" fill="none"></path></g><g transform="translate(355.78333282470703 270.75) rotate(0 0 16.5)"><path d="M-5.64 17.5 C-3.77 22.64, -1.9 27.79, 0 33 M-5.64 17.5 C-4.19 21.49, -2.74 25.49, 0 33" stroke="#1e1e1e" stroke-width="2" fill="none"></path></g><g transform="translate(355.78333282470703 270.75) rotate(0 0 16.5)"><path d="M5.64 17.5 C3.77 22.64, 1.9 27.79, 0 33 M5.64 17.5 C4.19 21.49, 2.74 25.49, 0 33" stroke="#1e1e1e" stroke-width="2" fill="none"></path></g></g><mask></mask><g stroke-linecap="round"><g transform="translate(448.78333282470703 268.75) rotate(0 -0.09214740621928286 15.5)"><path d="M0 0 C-0.03 5.17, -0.15 25.83, -0.18 31 M0 0 C-0.03 5.17, -0.15 25.83, -0.18 31" stroke="#1e1e1e" stroke-width="2" fill="none"></path></g><g transform="translate(448.78333282470703 268.75) rotate(0 -0.09214740621928286 15.5)"><path d="M-5.4 16.4 C-4.09 20.08, -2.77 23.75, -0.18 31 M-5.4 16.4 C-3.79 20.91, -2.18 25.42, -0.18 31" stroke="#1e1e1e" stroke-width="2" fill="none"></path></g><g transform="translate(448.78333282470703 268.75) rotate(0 -0.09214740621928286 15.5)"><path d="M5.2 16.47 C3.85 20.12, 2.49 23.78, -0.18 31 M5.2 16.47 C3.54 20.96, 1.87 25.45, -0.18 31" stroke="#1e1e1e" stroke-width="2" fill="none"></path></g></g><mask></mask><g transform="translate(10 314) rotate(0 35.93333435058594 17.5)"><text x="0" y="0" font-family="Virgil, Segoe UI Emoji" font-size="28px" fill="#e03131" text-anchor="start" style="white-space: pre;" direction="ltr" dominant-baseline="text-before-edge">value</text></g></svg>